<svg width="189" height="56" viewBox="0 0 189 56" fill="none" xmlns="http://www.w3.org/2000/svg">
<path d="M65.2014 26.5239L73.6264 35.6489H70.2014L63.1014 27.8739H62.3264V35.6489H59.7514V18.0239H62.3264V25.3989H63.1014L69.7764 18.0239H73.0014L65.2014 26.5239ZM79.4452 22.4739C81.0452 22.4739 82.3035 22.9989 83.2202 24.0489C84.1535 25.0823 84.6202 26.5323 84.6202 28.3989V35.6489H82.8702L82.2952 33.6239C81.8785 34.2739 81.3202 34.8156 80.6202 35.2489C79.9202 35.6823 79.0785 35.8989 78.0952 35.8989C77.2285 35.8989 76.4535 35.7239 75.7702 35.3739C75.0868 35.0239 74.5535 34.5406 74.1702 33.9239C73.7868 33.2906 73.5952 32.5823 73.5952 31.7989C73.5952 30.5823 74.0785 29.6073 75.0452 28.8739C76.0118 28.1406 77.4118 27.7739 79.2452 27.7739H82.1702C82.1035 26.7573 81.8202 25.9739 81.3202 25.4239C80.8202 24.8573 80.1535 24.5739 79.3202 24.5739C78.6868 24.5739 78.1285 24.7239 77.6452 25.0239C77.1618 25.3239 76.7952 25.7156 76.5452 26.1989L74.2702 25.8239C74.6035 24.7906 75.2452 23.9739 76.1952 23.3739C77.1452 22.7739 78.2285 22.4739 79.4452 22.4739ZM78.6202 33.8239C79.6702 33.8239 80.5202 33.4823 81.1702 32.7989C81.8368 32.0989 82.1702 31.1406 82.1702 29.9239V29.7739H79.3202C77.1535 29.7739 76.0702 30.4239 76.0702 31.7239C76.0702 32.3573 76.3035 32.8656 76.7702 33.2489C77.2368 33.6323 77.8535 33.8239 78.6202 33.8239ZM87.8461 40.7739V22.7239H89.6211L90.2211 24.8739C90.7545 24.1906 91.4295 23.6239 92.2461 23.1739C93.0795 22.7073 94.0461 22.4739 95.1461 22.4739C96.3628 22.4739 97.4461 22.7656 98.3961 23.3489C99.3461 23.9156 100.088 24.7073 100.621 25.7239C101.171 26.7406 101.446 27.8989 101.446 29.1989C101.446 30.4823 101.171 31.6323 100.621 32.6489C100.088 33.6656 99.3461 34.4656 98.3961 35.0489C97.4461 35.6156 96.3628 35.8989 95.1461 35.8989C94.0795 35.8989 93.1378 35.6823 92.3211 35.2489C91.5045 34.7989 90.8295 34.2489 90.2961 33.5989V40.7739H87.8461ZM94.6211 33.6989C95.4545 33.6989 96.1961 33.5073 96.8461 33.1239C97.4961 32.7406 97.9961 32.2073 98.3461 31.5239C98.7128 30.8406 98.8961 30.0656 98.8961 29.1989C98.8961 28.3323 98.7128 27.5573 98.3461 26.8739C97.9961 26.1906 97.4961 25.6573 96.8461 25.2739C96.1961 24.8906 95.4545 24.6989 94.6211 24.6989C93.7878 24.6989 93.0378 24.8906 92.3711 25.2739C91.7211 25.6573 91.2128 26.1906 90.8461 26.8739C90.4795 27.5573 90.2961 28.3323 90.2961 29.1989C90.2961 30.0656 90.4795 30.8406 90.8461 31.5239C91.2128 32.2073 91.7211 32.7406 92.3711 33.1239C93.0378 33.5073 93.7878 33.6989 94.6211 33.6989ZM109.268 35.6489H106.818V24.9739H102.343V22.7239H113.743V24.9739H109.268V35.6489ZM121.46 35.8989C120.144 35.8989 118.969 35.6156 117.935 35.0489C116.902 34.4823 116.094 33.6906 115.51 32.6739C114.927 31.6573 114.635 30.4989 114.635 29.1989C114.635 27.8989 114.927 26.7406 115.51 25.7239C116.094 24.7073 116.902 23.9156 117.935 23.3489C118.969 22.7656 120.144 22.4739 121.46 22.4739C122.777 22.4739 123.952 22.7656 124.985 23.3489C126.019 23.9156 126.827 24.7073 127.41 25.7239C127.994 26.7406 128.285 27.8989 128.285 29.1989C128.285 30.4989 127.994 31.6573 127.41 32.6739C126.827 33.6906 126.019 34.4823 124.985 35.0489C123.952 35.6156 122.777 35.8989 121.46 35.8989ZM121.46 33.6489C122.727 33.6489 123.752 33.2406 124.535 32.4239C125.335 31.6073 125.735 30.5323 125.735 29.1989C125.735 27.8656 125.335 26.7906 124.535 25.9739C123.752 25.1406 122.727 24.7239 121.46 24.7239C120.194 24.7239 119.169 25.1406 118.385 25.9739C117.602 26.7906 117.21 27.8656 117.21 29.1989C117.21 30.5156 117.602 31.5906 118.385 32.4239C119.169 33.2406 120.194 33.6489 121.46 33.6489ZM137.788 30.9489C137.388 31.1323 136.913 31.2739 136.363 31.3739C135.813 31.4739 135.271 31.5239 134.738 31.5239C133.188 31.5239 131.996 31.0906 131.163 30.2239C130.329 29.3573 129.913 28.1323 129.913 26.5489V22.7239H132.363V26.5489C132.363 28.3989 133.254 29.3239 135.038 29.3239C136.121 29.3239 137.038 29.1323 137.788 28.7489V22.7239H140.238V35.6489H137.788V30.9489ZM154.833 35.6489H151.608L146.833 30.2989H146.058V35.6489H143.608V22.7239H146.058V27.9489H146.808L151.383 22.7239H154.333L148.783 28.9739L154.833 35.6489ZM160.172 35.6489H156.547V22.7239H158.922V32.8989H159.297L164.522 22.7239H168.147V35.6489H165.772V25.4989H165.397L160.172 35.6489Z" fill="black"/>
<path d="M13 25.76C13 17.3879 13 13.2018 15.6009 10.6009C18.2018 8 22.3879 8 30.76 8H32.24C40.6121 8 44.7982 8 47.3991 10.6009C50 13.2018 50 17.3879 50 25.76V27.24C50 35.6121 50 39.7982 47.3991 42.3991C44.7982 45 40.6121 45 32.24 45H30.76C22.3879 45 18.2018 45 15.6009 42.3991C13 39.7982 13 35.6121 13 27.24V25.76Z" fill="#0077FF"/>
<path d="M32.6871 34.6547C24.2541 34.6547 19.4442 28.8734 19.2438 19.2534H23.4679C23.6067 26.3143 26.7208 29.3051 29.1874 29.9217V19.2534H33.1651V25.343C35.6009 25.0809 38.1598 22.3059 39.0231 19.2534H43.0007C42.3378 23.0151 39.5628 25.7901 37.5895 26.9309C39.5628 27.8559 42.7234 30.2763 43.9259 34.6547H39.5474C38.607 31.7255 36.2638 29.4592 33.1651 29.1509V34.6547H32.6871Z" fill="white"/>
</svg>
