<?xml version="1.0" standalone="no"?>
<!DOCTYPE svg PUBLIC "-//W3C//DTD SVG 20010904//EN"
 "http://www.w3.org/TR/2001/REC-SVG-20010904/DTD/svg10.dtd">
<svg version="1.0" xmlns="http://www.w3.org/2000/svg"
 width="700.000000pt" height="700.000000pt" viewBox="0 0 700.000000 700.000000"
 preserveAspectRatio="xMidYMid meet">
<metadata>
Created by potrace 1.14, written by Peter Selinger 2001-2017
</metadata>
<g transform="translate(0.000000,700.000000) scale(0.100000,-0.100000)"
fill="#000000" stroke="none">
<path d="M2338 6995 c-1 -2 -88 -6 -193 -9 -104 -4 -210 -8 -235 -11 -25 -2
-83 -6 -130 -10 -150 -10 -326 -33 -440 -55 -30 -6 -66 -14 -80 -16 -56 -11
-150 -37 -231 -65 -385 -129 -655 -373 -811 -732 -37 -86 -100 -283 -111 -352
-3 -16 -10 -50 -15 -75 -6 -25 -13 -65 -16 -90 -3 -25 -8 -54 -10 -65 -2 -11
-7 -51 -11 -90 -4 -38 -9 -77 -10 -86 -2 -9 -7 -61 -11 -115 -3 -55 -8 -117
-10 -139 -28 -374 -27 -2962 1 -3170 2 -16 7 -75 10 -130 4 -55 8 -113 10
-130 2 -16 6 -55 10 -85 13 -113 47 -295 75 -405 74 -287 185 -491 365 -670
223 -223 489 -344 905 -414 63 -11 142 -23 175 -26 33 -4 70 -8 82 -10 12 -2
65 -7 117 -10 52 -4 114 -8 138 -10 369 -28 2842 -28 3178 0 25 2 81 6 125 9
96 7 169 15 210 21 17 2 53 7 80 10 28 4 57 8 65 10 8 2 38 7 65 11 158 20
426 107 575 187 260 139 464 368 579 648 37 91 87 248 97 306 3 15 9 44 14 63
9 37 35 201 45 285 3 28 8 64 10 80 9 68 20 240 32 495 18 399 9 2661 -12
2940 -2 25 -6 85 -9 134 -4 49 -9 103 -11 120 -2 17 -9 74 -15 126 -54 444
-188 778 -409 1012 -68 73 -214 193 -251 206 -8 3 -17 8 -20 11 -10 12 -108
60 -191 95 -183 75 -446 133 -734 161 -33 3 -76 8 -95 10 -19 2 -87 7 -150 10
-63 4 -153 9 -200 12 -91 6 -2546 14 -2552 8z m-357 -2152 c23 -924 340 -1621
864 -1904 91 -49 215 -93 216 -76 0 7 1 460 2 1007 l2 995 375 3 375 2 0 -576
0 -576 40 7 c126 21 265 82 392 170 87 61 82 57 207 180 194 193 358 457 443
715 l26 80 378 0 377 0 -5 -22 c-67 -295 -161 -517 -319 -753 -162 -242 -415
-496 -626 -628 -37 -23 -67 -44 -68 -47 0 -3 30 -21 68 -40 69 -36 228 -137
273 -174 14 -11 41 -32 59 -46 93 -69 264 -239 357 -355 127 -158 250 -361
324 -535 51 -121 110 -303 100 -309 -7 -5 -723 -6 -802 -2 -10 1 -27 30 -48
85 -168 444 -519 786 -930 905 -64 19 -140 35 -211 45 l-35 5 0 -519 c0 -410
-3 -520 -12 -521 -73 -5 -338 5 -428 16 -109 13 -137 18 -200 30 -38 8 -81 17
-95 19 -42 7 -140 34 -235 65 -337 109 -634 290 -867 528 -113 116 -128 132
-189 214 -224 294 -382 640 -484 1054 -72 292 -100 499 -120 888 l-5 97 400 0
400 0 1 -27z"/>
</g>
</svg>
