<svg width="100" height="100" viewBox="0 0 100 100" fill="none" xmlns="http://www.w3.org/2000/svg">
<path fill-rule="evenodd" clip-rule="evenodd" d="M7.02944 7.02944C0 14.0589 0 25.3726 0 48V52C0 74.6274 0 85.9411 7.02944 92.9706C14.0589 100 25.3726 100 48 100H52C74.6274 100 85.9411 100 92.9706 92.9706C100 85.9411 100 74.6274 100 52V48C100 25.3726 100 14.0589 92.9706 7.02944C85.9411 0 74.6274 0 52 0H48C25.3726 0 14.0589 0 7.02944 7.02944ZM16.8752 30.4169C17.4168 56.4169 30.4167 72.0418 53.2084 72.0418H54.5003V57.1668C62.8753 58.0001 69.2082 64.1252 71.7498 72.0418H83.5835C80.3335 60.2085 71.7914 53.6668 66.4581 51.1668C71.7914 48.0835 79.2915 40.5835 81.0831 30.4169H70.3328C67.9995 38.6669 61.0836 46.1668 54.5003 46.8751V30.4169H43.7499V59.2501C37.0833 57.5835 28.6668 49.5002 28.2918 30.4169H16.8752Z" fill="white"/>
</svg>
