<svg width="235" height="57" viewBox="0 0 235 57" fill="none" xmlns="http://www.w3.org/2000/svg">
<path d="M0 27.36C0 14.4624 0 8.01356 4.00678 4.00678C8.01356 0 14.4624 0 27.36 0H29.64C42.5376 0 48.9864 0 52.9932 4.00678C57 8.01356 57 14.4624 57 27.36V29.64C57 42.5376 57 48.9864 52.9932 52.9932C48.9864 57 42.5376 57 29.64 57H27.36C14.4624 57 8.01356 57 4.00678 52.9932C0 48.9864 0 42.5376 0 29.64V27.36Z" fill="black"/>
<path d="M30.3287 41.0622C17.3375 41.0622 9.92752 32.1559 9.61877 17.3359H16.1263C16.34 28.2134 21.1374 32.8209 24.9374 33.7709V17.3359H31.0651V26.7171C34.8176 26.3134 38.7596 22.0384 40.0896 17.3359H46.2173C45.1961 23.1309 40.921 27.4059 37.881 29.1634C40.921 30.5884 45.79 34.3172 47.6425 41.0622H40.8973C39.4486 36.5497 35.8388 33.0584 31.0651 32.5834V41.0622H30.3287Z" fill="white"/>
<mask id="path-3-outside-1_42188_8373" maskUnits="userSpaceOnUse" x="68" y="19" width="145" height="29" fill="black">
<rect fill="white" x="68" y="19" width="145" height="29"/>
<path d="M73.1338 28.8418H73.8076L81.2051 19.8623H86.127L77.543 30.2041L86.7129 41H81.3662L73.8369 32.3428H73.1338V41H68.71V19.8623H73.1338V28.8418ZM94.7695 38.041C96.7471 38.041 98.2412 36.7812 98.2412 35.1406V33.9541L94.9746 34.1592C93.1436 34.291 92.25 34.9502 92.25 36.1074C92.25 37.3086 93.29 38.041 94.7695 38.041ZM93.3633 41.249C90.2578 41.249 88.0752 39.3447 88.0752 36.3857C88.0752 33.4561 90.3164 31.7568 94.3301 31.5225L98.2412 31.2881V29.9697C98.2412 28.6221 97.2744 27.8604 95.5166 27.8604C93.9785 27.8604 92.9531 28.3877 92.6016 29.3545H88.6758C88.9541 26.3662 91.6934 24.4912 95.751 24.4912C100.028 24.4912 102.445 26.5127 102.445 29.9697V41H98.3145V38.8906H98.0508C97.2158 40.3701 95.458 41.249 93.3633 41.249ZM116.259 24.5791C120.346 24.5791 122.851 27.6846 122.851 32.9141C122.851 38.1289 120.375 41.249 116.332 41.249C114.018 41.249 112.245 40.2383 111.454 38.5244H111.19V46.3613H106.928V24.8428H111.059V27.4941H111.322C112.201 25.6777 114.032 24.5791 116.259 24.5791ZM114.809 37.6895C117.108 37.6895 118.471 35.9023 118.471 32.9141C118.471 29.9551 117.094 28.1533 114.823 28.1533C112.553 28.1533 111.146 29.9697 111.146 32.9287C111.146 35.8877 112.553 37.6895 114.809 37.6895ZM138.437 24.8428V28.1973H133.603V41H129.34V28.1973H124.506V24.8428H138.437ZM148.485 41.3516C143.52 41.3516 140.531 38.2021 140.531 32.9141C140.531 27.6846 143.563 24.4912 148.485 24.4912C153.407 24.4912 156.439 27.6699 156.439 32.9141C156.439 38.2021 153.451 41.3516 148.485 41.3516ZM148.485 37.8652C150.756 37.8652 152.06 36.0488 152.06 32.9141C152.06 29.8086 150.741 27.9775 148.485 27.9775C146.215 27.9775 144.911 29.8086 144.911 32.9141C144.911 36.0635 146.2 37.8652 148.485 37.8652ZM174.208 41H169.945V34.54H169.682C168.788 35.3311 167.44 35.9023 165.858 35.9023C162.094 35.9023 159.735 33.4414 159.735 29.8232V24.8428H163.998V29.3545C163.998 31.127 165.082 32.2256 166.942 32.2256C168.363 32.2256 169.33 31.7129 169.945 31.1416V24.8428H174.208V41ZM183.788 34.3057H183.026V41H178.764V24.8428H183.026V31.1416H183.729L188.607 24.8428H193.456L187.26 32.2109L193.778 41H188.695L183.788 34.3057ZM201.088 41H196.898V24.8428H201.088V34.7744H201.352L207.797 24.8428H211.986V41H207.797V30.9512H207.533L201.088 41Z"/>
</mask>
<path d="M73.1338 28.8418H73.8076L81.2051 19.8623H86.127L77.543 30.2041L86.7129 41H81.3662L73.8369 32.3428H73.1338V41H68.71V19.8623H73.1338V28.8418ZM94.7695 38.041C96.7471 38.041 98.2412 36.7812 98.2412 35.1406V33.9541L94.9746 34.1592C93.1436 34.291 92.25 34.9502 92.25 36.1074C92.25 37.3086 93.29 38.041 94.7695 38.041ZM93.3633 41.249C90.2578 41.249 88.0752 39.3447 88.0752 36.3857C88.0752 33.4561 90.3164 31.7568 94.3301 31.5225L98.2412 31.2881V29.9697C98.2412 28.6221 97.2744 27.8604 95.5166 27.8604C93.9785 27.8604 92.9531 28.3877 92.6016 29.3545H88.6758C88.9541 26.3662 91.6934 24.4912 95.751 24.4912C100.028 24.4912 102.445 26.5127 102.445 29.9697V41H98.3145V38.8906H98.0508C97.2158 40.3701 95.458 41.249 93.3633 41.249ZM116.259 24.5791C120.346 24.5791 122.851 27.6846 122.851 32.9141C122.851 38.1289 120.375 41.249 116.332 41.249C114.018 41.249 112.245 40.2383 111.454 38.5244H111.19V46.3613H106.928V24.8428H111.059V27.4941H111.322C112.201 25.6777 114.032 24.5791 116.259 24.5791ZM114.809 37.6895C117.108 37.6895 118.471 35.9023 118.471 32.9141C118.471 29.9551 117.094 28.1533 114.823 28.1533C112.553 28.1533 111.146 29.9697 111.146 32.9287C111.146 35.8877 112.553 37.6895 114.809 37.6895ZM138.437 24.8428V28.1973H133.603V41H129.34V28.1973H124.506V24.8428H138.437ZM148.485 41.3516C143.52 41.3516 140.531 38.2021 140.531 32.9141C140.531 27.6846 143.563 24.4912 148.485 24.4912C153.407 24.4912 156.439 27.6699 156.439 32.9141C156.439 38.2021 153.451 41.3516 148.485 41.3516ZM148.485 37.8652C150.756 37.8652 152.06 36.0488 152.06 32.9141C152.06 29.8086 150.741 27.9775 148.485 27.9775C146.215 27.9775 144.911 29.8086 144.911 32.9141C144.911 36.0635 146.2 37.8652 148.485 37.8652ZM174.208 41H169.945V34.54H169.682C168.788 35.3311 167.44 35.9023 165.858 35.9023C162.094 35.9023 159.735 33.4414 159.735 29.8232V24.8428H163.998V29.3545C163.998 31.127 165.082 32.2256 166.942 32.2256C168.363 32.2256 169.33 31.7129 169.945 31.1416V24.8428H174.208V41ZM183.788 34.3057H183.026V41H178.764V24.8428H183.026V31.1416H183.729L188.607 24.8428H193.456L187.26 32.2109L193.778 41H188.695L183.788 34.3057ZM201.088 41H196.898V24.8428H201.088V34.7744H201.352L207.797 24.8428H211.986V41H207.797V30.9512H207.533L201.088 41Z" fill="black"/>
<path d="M73.1338 28.8418H72.4738V29.5018H73.1338V28.8418ZM73.8076 28.8418V29.5018H74.119L74.317 29.2615L73.8076 28.8418ZM81.2051 19.8623V19.2023H80.8937L80.6957 19.4427L81.2051 19.8623ZM86.127 19.8623L86.6348 20.2838L87.5325 19.2023H86.127V19.8623ZM77.543 30.2041L77.0351 29.7826L76.6812 30.209L77.0399 30.6314L77.543 30.2041ZM86.7129 41V41.66H88.1394L87.2159 40.5727L86.7129 41ZM81.3662 41L80.8682 41.4331L81.0655 41.66H81.3662V41ZM73.8369 32.3428L74.3349 31.9097L74.1376 31.6828H73.8369V32.3428ZM73.1338 32.3428V31.6828H72.4738V32.3428H73.1338ZM73.1338 41V41.66H73.7938V41H73.1338ZM68.71 41H68.05V41.66H68.71V41ZM68.71 19.8623V19.2023H68.05V19.8623H68.71ZM73.1338 19.8623H73.7938V19.2023H73.1338V19.8623ZM73.1338 29.5018H73.8076V28.1818H73.1338V29.5018ZM74.317 29.2615L81.7145 20.282L80.6957 19.4427L73.2982 28.4221L74.317 29.2615ZM81.2051 20.5223H86.127V19.2023H81.2051V20.5223ZM85.6191 19.4408L77.0351 29.7826L78.0508 30.6256L86.6348 20.2838L85.6191 19.4408ZM77.0399 30.6314L86.2099 41.4273L87.2159 40.5727L78.046 29.7768L77.0399 30.6314ZM86.7129 40.34H81.3662V41.66H86.7129V40.34ZM81.8642 40.5669L74.3349 31.9097L73.3389 32.7759L80.8682 41.4331L81.8642 40.5669ZM73.8369 31.6828H73.1338V33.0028H73.8369V31.6828ZM72.4738 32.3428V41H73.7938V32.3428H72.4738ZM73.1338 40.34H68.71V41.66H73.1338V40.34ZM69.37 41V19.8623H68.05V41H69.37ZM68.71 20.5223H73.1338V19.2023H68.71V20.5223ZM72.4738 19.8623V28.8418H73.7938V19.8623H72.4738ZM98.2412 33.9541H98.9012V33.2514L98.1999 33.2954L98.2412 33.9541ZM94.9746 34.1592L94.9333 33.5004L94.9272 33.5009L94.9746 34.1592ZM94.3301 31.5225L94.3686 32.1813L94.3696 32.1813L94.3301 31.5225ZM98.2412 31.2881L98.2807 31.9469L98.9012 31.9097V31.2881H98.2412ZM92.6016 29.3545V30.0145H93.0638L93.2218 29.58L92.6016 29.3545ZM88.6758 29.3545L88.0186 29.2933L87.9515 30.0145H88.6758V29.3545ZM102.445 41V41.66H103.105V41H102.445ZM98.3145 41H97.6545V41.66H98.3145V41ZM98.3145 38.8906H98.9745V38.2306H98.3145V38.8906ZM98.0508 38.8906V38.2306H97.6654L97.476 38.5662L98.0508 38.8906ZM94.7695 38.701C96.9973 38.701 98.9012 37.2504 98.9012 35.1406H97.5812C97.5812 36.3121 96.4968 37.381 94.7695 37.381V38.701ZM98.9012 35.1406V33.9541H97.5812V35.1406H98.9012ZM98.1999 33.2954L94.9333 33.5005L95.016 34.8179L98.2826 34.6128L98.1999 33.2954ZM94.9272 33.5009C93.9584 33.5706 93.1353 33.7841 92.5398 34.2133C91.9053 34.6706 91.59 35.3294 91.59 36.1074H92.91C92.91 35.7282 93.0415 35.4788 93.3115 35.2842C93.6205 35.0616 94.1598 34.8796 95.022 34.8175L94.9272 33.5009ZM91.59 36.1074C91.59 36.9216 91.9526 37.5985 92.5593 38.0529C93.1481 38.4939 93.9293 38.701 94.7695 38.701V37.381C94.1303 37.381 93.6517 37.2219 93.3506 36.9964C93.0674 36.7843 92.91 36.4944 92.91 36.1074H91.59ZM93.3633 40.589C91.944 40.589 90.7895 40.155 89.9978 39.4379C89.2125 38.7265 88.7352 37.6935 88.7352 36.3857H87.4152C87.4152 38.037 88.0292 39.4356 89.1116 40.4161C90.1876 41.3909 91.6771 41.909 93.3633 41.909V40.589ZM88.7352 36.3857C88.7352 35.1119 89.2111 34.153 90.101 33.4657C91.0185 32.757 92.434 32.2943 94.3686 32.1813L94.2916 30.8636C92.2125 30.985 90.5006 31.4891 89.2941 32.421C88.0599 33.3743 87.4152 34.7299 87.4152 36.3857H88.7352ZM94.3696 32.1813L98.2807 31.9469L98.2017 30.6293L94.2906 30.8636L94.3696 32.1813ZM98.9012 31.2881V29.9697H97.5812V31.2881H98.9012ZM98.9012 29.9697C98.9012 29.1223 98.5878 28.39 97.9433 27.8887C97.3238 27.4069 96.4779 27.2004 95.5166 27.2004V28.5204C96.3131 28.5204 96.8295 28.6947 97.1329 28.9306C97.4112 29.1471 97.5812 29.4695 97.5812 29.9697H98.9012ZM95.5166 27.2004C93.8621 27.2004 92.4729 27.7769 91.9813 29.1289L93.2218 29.58C93.4333 28.9985 94.0949 28.5204 95.5166 28.5204V27.2004ZM92.6016 28.6945H88.6758V30.0145H92.6016V28.6945ZM89.3329 29.4157C89.4529 28.1277 90.095 27.0842 91.1697 26.3464C92.2585 25.5988 93.8169 25.1512 95.751 25.1512V23.8312C93.6275 23.8312 91.7874 24.3211 90.4226 25.2581C89.0436 26.2049 88.177 27.593 88.0186 29.2933L89.3329 29.4157ZM95.751 25.1512C97.7956 25.1512 99.3006 25.6352 100.283 26.4437C101.247 27.237 101.785 28.407 101.785 29.9697H103.105C103.105 28.0754 102.436 26.5061 101.122 25.4245C99.8259 24.3579 97.9837 23.8312 95.751 23.8312V25.1512ZM101.785 29.9697V41H103.105V29.9697H101.785ZM102.445 40.34H98.3145V41.66H102.445V40.34ZM98.9745 41V38.8906H97.6545V41H98.9745ZM98.3145 38.2306H98.0508V39.5506H98.3145V38.2306ZM97.476 38.5662C96.7879 39.7855 95.2876 40.589 93.3633 40.589V41.909C95.6285 41.909 97.6437 40.9548 98.6256 39.215L97.476 38.5662ZM111.454 38.5244L112.053 38.2478L111.876 37.8644H111.454V38.5244ZM111.19 38.5244V37.8644H110.53V38.5244H111.19ZM111.19 46.3613V47.0213H111.85V46.3613H111.19ZM106.928 46.3613H106.268V47.0213H106.928V46.3613ZM106.928 24.8428V24.1828H106.268V24.8428H106.928ZM111.059 24.8428H111.719V24.1828H111.059V24.8428ZM111.059 27.4941H110.399V28.1541H111.059V27.4941ZM111.322 27.4941V28.1541H111.736L111.916 27.7816L111.322 27.4941ZM116.259 25.2391C118.119 25.2391 119.569 25.9372 120.571 27.1963C121.587 28.474 122.191 30.3957 122.191 32.9141H123.511C123.511 30.203 122.862 27.9571 121.604 26.3748C120.331 24.7738 118.486 23.9191 116.259 23.9191V25.2391ZM122.191 32.9141C122.191 35.4263 121.593 37.3494 120.588 38.6295C119.598 39.8903 118.166 40.589 116.332 40.589V41.909C118.541 41.909 120.368 41.0477 121.627 39.4447C122.87 37.861 123.511 35.6166 123.511 32.9141H122.191ZM116.332 40.589C114.212 40.589 112.712 39.676 112.053 38.2478L110.855 38.801C111.778 40.8006 113.823 41.909 116.332 41.909V40.589ZM111.454 37.8644H111.19V39.1844H111.454V37.8644ZM110.53 38.5244V46.3613H111.85V38.5244H110.53ZM111.19 45.7013H106.928V47.0213H111.19V45.7013ZM107.588 46.3613V24.8428H106.268V46.3613H107.588ZM106.928 25.5028H111.059V24.1828H106.928V25.5028ZM110.399 24.8428V27.4941H111.719V24.8428H110.399ZM111.059 28.1541H111.322V26.8341H111.059V28.1541ZM111.916 27.7816C112.674 26.2157 114.259 25.2391 116.259 25.2391V23.9191C113.805 23.9191 111.728 25.1398 110.728 27.2067L111.916 27.7816ZM114.809 38.3495C116.149 38.3495 117.264 37.8188 118.026 36.8236C118.771 35.8507 119.131 34.4978 119.131 32.9141H117.811C117.811 34.3186 117.489 35.3534 116.978 36.0211C116.484 36.6666 115.768 37.0295 114.809 37.0295V38.3495ZM119.131 32.9141C119.131 31.3421 118.766 29.994 118.022 29.0229C117.263 28.0307 116.153 27.4933 114.823 27.4933V28.8133C115.764 28.8133 116.478 29.1768 116.974 29.8253C117.487 30.4947 117.811 31.5271 117.811 32.9141H119.131ZM114.823 27.4933C113.493 27.4933 112.377 28.0351 111.611 29.0284C110.86 30.0022 110.486 31.3538 110.486 32.9287H111.806C111.806 31.5446 112.136 30.5085 112.656 29.8344C113.161 29.1798 113.883 28.8133 114.823 28.8133V27.4933ZM110.486 32.9287C110.486 34.5037 110.86 35.8518 111.609 36.8221C112.374 37.8118 113.486 38.3495 114.809 38.3495V37.0295C113.875 37.0295 113.157 36.6663 112.654 36.0153C112.136 35.345 111.806 34.3127 111.806 32.9287H110.486ZM138.437 24.8428H139.097V24.1828H138.437V24.8428ZM138.437 28.1973V28.8573H139.097V28.1973H138.437ZM133.603 28.1973V27.5373H132.943V28.1973H133.603ZM133.603 41V41.66H134.263V41H133.603ZM129.34 41H128.68V41.66H129.34V41ZM129.34 28.1973H130V27.5373H129.34V28.1973ZM124.506 28.1973H123.846V28.8573H124.506V28.1973ZM124.506 24.8428V24.1828H123.846V24.8428H124.506ZM137.777 24.8428V28.1973H139.097V24.8428H137.777ZM138.437 27.5373H133.603V28.8573H138.437V27.5373ZM132.943 28.1973V41H134.263V28.1973H132.943ZM133.603 40.34H129.34V41.66H133.603V40.34ZM130 41V28.1973H128.68V41H130ZM129.34 27.5373H124.506V28.8573H129.34V27.5373ZM125.166 28.1973V24.8428H123.846V28.1973H125.166ZM124.506 25.5028H138.437V24.1828H124.506V25.5028ZM148.485 40.6916C146.146 40.6916 144.345 39.9534 143.126 38.6627C141.902 37.3671 141.191 35.4365 141.191 32.9141H139.871C139.871 35.6797 140.654 37.9678 142.166 39.569C143.683 41.175 145.859 42.0116 148.485 42.0116V40.6916ZM141.191 32.9141C141.191 30.4251 141.911 28.4966 143.142 27.1951C144.369 25.8979 146.171 25.1512 148.485 25.1512V23.8312C145.877 23.8312 143.703 24.6812 142.183 26.2881C140.667 27.8906 139.871 30.1735 139.871 32.9141H141.191ZM148.485 25.1512C150.8 25.1512 152.602 25.8948 153.829 27.1899C155.059 28.4892 155.779 30.4174 155.779 32.9141H157.099C157.099 30.1666 156.303 27.8833 154.787 26.2823C153.267 24.677 151.092 23.8312 148.485 23.8312V25.1512ZM155.779 32.9141C155.779 35.4365 155.068 37.3671 153.845 38.6627C152.626 39.9534 150.825 40.6916 148.485 40.6916V42.0116C151.111 42.0116 153.288 41.175 154.804 39.569C156.317 37.9678 157.099 35.6797 157.099 32.9141H155.779ZM148.485 38.5252C149.821 38.5252 150.919 37.9788 151.659 36.9511C152.379 35.9521 152.72 34.5597 152.72 32.9141H151.4C151.4 34.4032 151.088 35.4863 150.588 36.1793C150.11 36.8435 149.421 37.2052 148.485 37.2052V38.5252ZM152.72 32.9141C152.72 31.2804 152.375 29.8923 151.653 28.8946C150.912 27.8697 149.816 27.3175 148.485 27.3175V28.6375C149.411 28.6375 150.101 29.0009 150.584 29.6679C151.085 30.3621 151.4 31.4422 151.4 32.9141H152.72ZM148.485 27.3175C147.148 27.3175 146.051 27.8689 145.311 28.8953C144.592 29.8936 144.251 31.2819 144.251 32.9141H145.571C145.571 31.4407 145.882 30.3608 146.382 29.6672C146.862 29.0017 147.552 28.6375 148.485 28.6375V27.3175ZM144.251 32.9141C144.251 34.5649 144.587 35.9582 145.306 36.9564C146.046 37.9846 147.146 38.5252 148.485 38.5252V37.2052C147.54 37.2052 146.852 36.8449 146.377 36.185C145.88 35.4949 145.571 34.4126 145.571 32.9141H144.251ZM174.208 41V41.66H174.868V41H174.208ZM169.945 41H169.285V41.66H169.945V41ZM169.945 34.54H170.605V33.88H169.945V34.54ZM169.682 34.54V33.88H169.431L169.244 34.0459L169.682 34.54ZM159.735 24.8428V24.1828H159.075V24.8428H159.735ZM163.998 24.8428H164.658V24.1828H163.998V24.8428ZM169.945 31.1416L170.394 31.6252L170.605 31.4294V31.1416H169.945ZM169.945 24.8428V24.1828H169.285V24.8428H169.945ZM174.208 24.8428H174.868V24.1828H174.208V24.8428ZM174.208 40.34H169.945V41.66H174.208V40.34ZM170.605 41V34.54H169.285V41H170.605ZM169.945 33.88H169.682V35.2H169.945V33.88ZM169.244 34.0459C168.474 34.7273 167.283 35.2423 165.858 35.2423V36.5623C167.597 36.5623 169.102 35.9348 170.119 35.0342L169.244 34.0459ZM165.858 35.2423C164.123 35.2423 162.771 34.6784 161.853 33.7545C160.935 32.8296 160.395 31.4868 160.395 29.8232H159.075C159.075 31.7779 159.715 33.4746 160.917 34.6847C162.12 35.8958 163.829 36.5623 165.858 36.5623V35.2423ZM160.395 29.8232V24.8428H159.075V29.8232H160.395ZM159.735 25.5028H163.998V24.1828H159.735V25.5028ZM163.338 24.8428V29.3545H164.658V24.8428H163.338ZM163.338 29.3545C163.338 30.3763 163.653 31.2784 164.309 31.9248C164.964 32.5703 165.883 32.8856 166.942 32.8856V31.5656C166.142 31.5656 165.588 31.3316 165.236 30.9846C164.885 30.6386 164.658 30.1051 164.658 29.3545H163.338ZM166.942 32.8856C168.538 32.8856 169.663 32.3045 170.394 31.6252L169.496 30.658C168.997 31.1212 168.189 31.5656 166.942 31.5656V32.8856ZM170.605 31.1416V24.8428H169.285V31.1416H170.605ZM169.945 25.5028H174.208V24.1828H169.945V25.5028ZM173.548 24.8428V41H174.868V24.8428H173.548ZM183.788 34.3057L184.32 33.9155L184.123 33.6457H183.788V34.3057ZM183.026 34.3057V33.6457H182.366V34.3057H183.026ZM183.026 41V41.66H183.686V41H183.026ZM178.764 41H178.104V41.66H178.764V41ZM178.764 24.8428V24.1828H178.104V24.8428H178.764ZM183.026 24.8428H183.686V24.1828H183.026V24.8428ZM183.026 31.1416H182.366V31.8016H183.026V31.1416ZM183.729 31.1416V31.8016H184.053L184.251 31.5457L183.729 31.1416ZM188.607 24.8428V24.1828H188.284L188.086 24.4387L188.607 24.8428ZM193.456 24.8428L193.961 25.2676L194.873 24.1828H193.456V24.8428ZM187.26 32.2109L186.755 31.7861L186.419 32.1853L186.73 32.6041L187.26 32.2109ZM193.778 41V41.66H195.09L194.308 40.6068L193.778 41ZM188.695 41L188.163 41.3902L188.361 41.66H188.695V41ZM183.788 33.6457H183.026V34.9657H183.788V33.6457ZM182.366 34.3057V41H183.686V34.3057H182.366ZM183.026 40.34H178.764V41.66H183.026V40.34ZM179.424 41V24.8428H178.104V41H179.424ZM178.764 25.5028H183.026V24.1828H178.764V25.5028ZM182.366 24.8428V31.1416H183.686V24.8428H182.366ZM183.026 31.8016H183.729V30.4816H183.026V31.8016ZM184.251 31.5457L189.129 25.2469L188.086 24.4387L183.208 30.7375L184.251 31.5457ZM188.607 25.5028H193.456V24.1828H188.607V25.5028ZM192.951 24.418L186.755 31.7861L187.765 32.6357L193.961 25.2676L192.951 24.418ZM186.73 32.6041L193.248 41.3932L194.308 40.6068L187.79 31.8178L186.73 32.6041ZM193.778 40.34H188.695V41.66H193.778V40.34ZM189.228 40.6098L184.32 33.9155L183.256 34.6959L188.163 41.3902L189.228 40.6098ZM201.088 41V41.66H201.449L201.643 41.3563L201.088 41ZM196.898 41H196.238V41.66H196.898V41ZM196.898 24.8428V24.1828H196.238V24.8428H196.898ZM201.088 24.8428H201.748V24.1828H201.088V24.8428ZM201.088 34.7744H200.428V35.4344H201.088V34.7744ZM201.352 34.7744V35.4344H201.71L201.905 35.1337L201.352 34.7744ZM207.797 24.8428V24.1828H207.438L207.243 24.4835L207.797 24.8428ZM211.986 24.8428H212.646V24.1828H211.986V24.8428ZM211.986 41V41.66H212.646V41H211.986ZM207.797 41H207.137V41.66H207.797V41ZM207.797 30.9512H208.457V30.2912H207.797V30.9512ZM207.533 30.9512V30.2912H207.172L206.978 30.5948L207.533 30.9512ZM201.088 40.34H196.898V41.66H201.088V40.34ZM197.558 41V24.8428H196.238V41H197.558ZM196.898 25.5028H201.088V24.1828H196.898V25.5028ZM200.428 24.8428V34.7744H201.748V24.8428H200.428ZM201.088 35.4344H201.352V34.1144H201.088V35.4344ZM201.905 35.1337L208.351 25.2021L207.243 24.4835L200.798 34.4151L201.905 35.1337ZM207.797 25.5028H211.986V24.1828H207.797V25.5028ZM211.326 24.8428V41H212.646V24.8428H211.326ZM211.986 40.34H207.797V41.66H211.986V40.34ZM208.457 41V30.9512H207.137V41H208.457ZM207.797 30.2912H207.533V31.6112H207.797V30.2912ZM206.978 30.5948L200.532 40.6437L201.643 41.3563L208.089 31.3075L206.978 30.5948Z" fill="white" mask="url(#path-3-outside-1_42188_8373)"/>
</svg>
