<svg width="58" height="58" viewBox="0 0 58 58" fill="none" xmlns="http://www.w3.org/2000/svg">
<path d="M0.252686 28.3278C0.252686 15.4301 0.252686 8.98133 4.25946 4.97455C8.26624 0.967773 14.7151 0.967773 27.6127 0.967773H29.8927C42.7903 0.967773 49.2391 0.967773 53.2459 4.97455C57.2527 8.98133 57.2527 15.4301 57.2527 28.3278V30.6078C57.2527 43.5054 57.2527 49.9542 53.2459 53.961C49.2391 57.9678 42.7903 57.9678 29.8927 57.9678H27.6127C14.7151 57.9678 8.26624 57.9678 4.25946 53.961C0.252686 49.9542 0.252686 43.5054 0.252686 30.6078V28.3278Z" fill="black"/>
<path d="M30.5813 42.0299C17.59 42.0299 10.1801 33.1237 9.87134 18.3037H16.3788C16.5926 29.1812 21.39 33.7887 25.19 34.7387V18.3037H31.3177V27.6849C35.0702 27.2812 39.0122 23.0062 40.3422 18.3037H46.4699C45.4486 24.0987 41.1736 28.3737 38.1336 30.1312C41.1736 31.5562 46.0426 35.2849 47.8951 42.0299H41.1499C39.7012 37.5174 36.0914 34.0262 31.3177 33.5512V42.0299H30.5813Z" fill="white"/>
</svg>
